<?xml version="1.0" encoding="utf-8"?>
<svg fill="#000000" width="800px" height="800px" viewBox="0 0 32 32" version="1.1" xmlns="http://www.w3.org/2000/svg">
    <title>arrow-rotate-left</title>
    <path d="M16 0.75c-0.015-0-0.034-0-0.052-0-4.179 0-7.962 1.696-10.698 4.437l-0 0v-3.47c0-0.69-0.56-1.25-1.25-1.25s-1.25 0.56-1.25 1.25v0 7.071c0.008 0.053 0.017 0.099 0.029 0.144l-0.002-0.008c0.009 0.096 0.027 0.183 0.055 0.267l-0.002-0.009c0.059 0.156 0.137 0.29 0.233 0.409l-0.002-0.003c0.056 0.064 0.118 0.12 0.185 0.17l0.003 0.002c0.033 0.034 0.068 0.066 0.104 0.096l0.002 0.002c0.026 0.015 0.055 0.015 0.081 0.029 0.068 0.034 0.148 0.063 0.231 0.083l0.008 0.002c0.068 0.022 0.147 0.038 0.229 0.047l0.005 0c0.032 0.002 0.059 0.018 0.091 0.018h7.071c0.69 0 1.25-0.56 1.25-1.25s-0.56-1.25-1.25-1.25v0h-4.581c2.325-2.635 5.709-4.288 9.48-4.288 0.011 0 0.021 0 0.032 0h-0.002c7.040 0.002 12.747 5.709 12.747 12.75 0 7.042-5.708 12.75-12.75 12.75-5.057 0-9.426-2.944-11.487-7.211l-0.033-0.076c-0.206-0.424-0.633-0.71-1.128-0.71-0.69 0-1.25 0.56-1.25 1.25 0 0.194 0.044 0.378 0.123 0.542l-0.003-0.008c2.506 5.195 7.732 8.716 13.78 8.716 8.423 0 15.251-6.828 15.251-15.251s-6.828-15.251-15.25-15.251h-0z"></path>
</svg>
