<?xml version="1.0" encoding="utf-8"?>
<svg version="1.1" id="Uploaded to svgrepo.com" xmlns="http://www.w3.org/2000/svg" xmlns:xlink="http://www.w3.org/1999/xlink"
     width="800px" height="800px" viewBox="0 0 32 32" xml:space="preserve">
<style type="text/css">
	.linesandangles_een{fill:#111918;}
	.st0{fill:#111918;}
</style>
    <path class="linesandangles_een" d="M23.349,8.841C22.124,5.994,19.296,4,16,4c-3.3,0-6.131,1.999-7.354,4.851
	C6.416,10.863,5,13.76,5,17c0,6.075,4.925,11,11,11s11-4.925,11-11C27,13.756,25.583,10.854,23.349,8.841z M16,6
	c3.308,0,6,2.692,6,6s-2.692,6-6,6s-6-2.692-6-6S12.692,6,16,6z M21.804,17.495C21.137,20.081,18.791,22,16,22
	s-5.137-1.919-5.804-4.505C11.654,19.035,13.712,20,16,20S20.346,19.035,21.804,17.495z M16,26c-4.963,0-9-4.037-9-9
	c0-1.477,0.366-2.867,1-4.097V16c0,4.418,3.582,8,8,8s8-3.582,8-8v-3.092c0.634,1.229,1,2.616,1,4.092C25,21.963,20.963,26,16,26z"
    />
</svg>
