<?xml version="1.0" encoding="utf-8"?>
<svg fill="#000000" width="800px" height="800px" viewBox="0 0 32 32" version="1.1" xmlns="http://www.w3.org/2000/svg">
    <title>arrow-rotate-right</title>
    <path d="M30.537 20.871c-0.157-0.076-0.341-0.12-0.535-0.12-0.495 0-0.924 0.287-1.128 0.704l-0.003 0.007c-2.094 4.345-6.464 7.289-11.522 7.289-7.042 0-12.751-5.709-12.751-12.751s5.708-12.751 12.75-12.751h0c0.009-0 0.019-0 0.029-0 3.771 0 7.155 1.653 9.468 4.274l0.012 0.014h-4.582c-0.69 0-1.25 0.56-1.25 1.25s0.56 1.25 1.25 1.25v0h7.072c0.030 0 0.055-0.015 0.084-0.017 0.179-0.023 0.341-0.070 0.491-0.138l-0.011 0.004c0.026-0.013 0.055-0.013 0.080-0.029 0.038-0.031 0.072-0.062 0.105-0.096l0-0c0.071-0.053 0.134-0.11 0.19-0.174l0.001-0.001c0.093-0.117 0.171-0.252 0.227-0.397l0.003-0.010c0.024-0.073 0.042-0.158 0.050-0.246l0-0.005c0.011-0.038 0.021-0.086 0.028-0.135l0.001-0.006v-7.071c0-0.69-0.56-1.25-1.25-1.25s-1.25 0.56-1.25 1.25v0 3.472c-2.736-2.742-6.519-4.439-10.698-4.439-0.018 0-0.036 0-0.054 0h0.003c-8.421 0.002-15.247 6.829-15.247 15.25 0 8.422 6.828 15.25 15.25 15.25 6.047 0 11.272-3.52 13.738-8.622l0.040-0.091c0.077-0.157 0.122-0.342 0.122-0.538 0-0.495-0.288-0.923-0.706-1.125l-0.007-0.003z"></path>
</svg>
