<?xml version="1.0" encoding="UTF-8"?>
<svg id="Layer_1" data-name="Layer 1" xmlns="http://www.w3.org/2000/svg" viewBox="0 0 70.29 39">
	<path d="m34,5.31v33.57h16.15c4.05,0,7.59-.84,10.62-2.52,3.06-1.71,5.42-4.05,7.06-7.01s2.46-6.28,2.46-9.96-.82-7.04-2.46-9.96c-1.64-2.92-4-5.2-7.06-6.84-3.03-1.64-6.57-2.46-10.62-2.46h-10.34l-5.81,5.18Zm23.81,5.66h-13.68c-.76,0-1.37.61-1.37,1.37v1.8c0,.76.61,1.37,1.37,1.37h13.68c.76,0,1.37-.61,1.37-1.37v-1.8c0-.76-.61-1.37-1.37-1.37Zm-13.68,5.66h4.72c.76,0,1.37.61,1.37,1.37v8.02c0,.76-.76,1.37-1.52,1.37h-4.57c-.76,0-1.37-.61-1.37-1.37v-8.02c0-.76.61-1.37,1.37-1.37Zm13.68,0h-4.72c-.76,0-1.37.61-1.37,1.37v1.78c0,.76.61,1.37,1.37,1.37h4.57c.76,0,1.52-.61,1.52-1.37v-1.78c0-.76-.61-1.37-1.37-1.37Zm-4.72,5.97h4.72c.76,0,1.37.61,1.37,1.37v2.05c0,.76-.76,1.37-1.52,1.37h-4.57c-.76,0-1.37-.61-1.37-1.37v-2.05c0-.76.61-1.37,1.37-1.37Z" style="fill: #12bf7c; fill-rule: evenodd; stroke-width: 0px;"/>
	<path d="m0,39V5.32L5.5,0h5.06v14.66h12.88V0h10.56v39h-10.56v-15.66h-12.88v12.35l-3.7,3.3H0Z" style="fill: #1a133b; fill-rule: evenodd; stroke-width: 0px;"/>
</svg>
